<svg width="25" height="26" viewBox="0 0 25 26" fill="none" xmlns="http://www.w3.org/2000/svg">
<path fill-rule="evenodd" clip-rule="evenodd" d="M12.5 4.40625C9.47969 4.40625 7.03125 6.85469 7.03125 9.875C7.03125 12.8953 9.47969 15.3437 12.5 15.3437C15.5203 15.3437 17.9687 12.8953 17.9687 9.875C17.9687 6.85469 15.5203 4.40625 12.5 4.40625ZM5.46875 9.875C5.46875 5.99175 8.61675 2.84375 12.5 2.84375C16.3833 2.84375 19.5312 5.99175 19.5312 9.875C19.5312 13.7583 16.3833 16.9062 12.5 16.9062C8.61675 16.9062 5.46875 13.7583 5.46875 9.875Z" fill="black" stroke="black" stroke-width="0.694444" stroke-miterlimit="10"/>
<path fill-rule="evenodd" clip-rule="evenodd" d="M12.5001 16.9054C10.7172 16.9054 8.96564 17.3747 7.4216 18.2663C5.87756 19.1578 4.59543 20.4401 3.70409 21.9843C3.48839 22.358 3.0106 22.4861 2.63691 22.2704C2.26323 22.0547 2.13515 21.5769 2.35086 21.2032C3.37932 19.4215 4.8587 17.9419 6.64029 16.9132C8.42187 15.8845 10.4429 15.3429 12.5001 15.3429C14.5574 15.3429 16.5784 15.8845 18.36 16.9132C20.1416 17.9419 21.6209 19.4215 22.6494 21.2032C22.8651 21.5769 22.737 22.0547 22.3633 22.2704C21.9897 22.4861 21.5119 22.358 21.2962 21.9843C20.4048 20.4401 19.1227 19.1578 17.5787 18.2663C16.0346 17.3747 14.2831 16.9054 12.5001 16.9054Z" fill="black" stroke="black" stroke-width="0.694444" stroke-linecap="round" stroke-linejoin="round"/>
</svg>
