<svg width="27" height="27" viewBox="0 0 27 27" fill="none" xmlns="http://www.w3.org/2000/svg">
<path fill-rule="evenodd" clip-rule="evenodd" d="M4.60547 7.20023C4.60547 6.76118 4.96139 6.40526 5.40044 6.40526H22.0947C22.3305 6.40526 22.5542 6.50994 22.7052 6.69101C22.8563 6.87209 22.9191 7.11087 22.8768 7.34284L21.665 13.9881C21.6649 13.9886 21.6648 13.9892 21.6647 13.9897C21.5661 14.5389 21.2772 15.0359 20.8487 15.3935C20.4201 15.751 19.8793 15.9462 19.3212 15.9449C19.3208 15.9449 19.3203 15.9449 19.3199 15.9449L19.3223 15.1499V15.9449H19.3212H6.84131C6.40227 15.9449 6.04635 15.5889 6.04635 15.1499C6.04635 14.7108 6.40227 14.3549 6.84131 14.3549H19.3223L19.3247 14.3549C19.5094 14.3555 19.6883 14.291 19.8301 14.1727C19.9718 14.0544 20.0674 13.8899 20.0999 13.7081L20.1004 13.7055L21.1417 7.99519H22.0947V7.20023L21.3127 7.05761L21.1417 7.99519H5.40044C4.96139 7.99519 4.60547 7.63927 4.60547 7.20023Z" fill="black" stroke="black" stroke-width="0.529978" stroke-linecap="round" stroke-linejoin="round"/>
<path fill-rule="evenodd" clip-rule="evenodd" d="M1.42578 3.22539C1.42578 2.78634 1.7817 2.43042 2.22075 2.43042H4.02697C4.39778 2.43397 4.75568 2.56706 5.03875 2.80658C5.32137 3.04572 5.51166 3.37596 5.57684 3.74035C5.57695 3.74095 5.57705 3.74155 5.57716 3.74215L8.23032 18.3298H18.9151C19.3541 18.3298 19.71 18.6857 19.71 19.1247C19.71 19.5638 19.3541 19.9197 18.9151 19.9197H7.5669C7.18272 19.9197 6.85351 19.645 6.78477 19.267L4.01175 4.02035H2.22075C1.7817 4.02035 1.42578 3.66444 1.42578 3.22539Z" fill="#F95C3C" stroke="#F95C3C" stroke-width="0.529978" stroke-linecap="round" stroke-linejoin="round"/>
<path fill-rule="evenodd" clip-rule="evenodd" d="M8.58121 19.9197C7.92264 19.9197 7.38876 20.4536 7.38876 21.1121C7.38876 21.7707 7.92264 22.3046 8.58121 22.3046C9.23979 22.3046 9.77366 21.7707 9.77366 21.1121C9.77366 20.4536 9.23979 19.9197 8.58121 19.9197ZM5.79883 21.1121C5.79883 19.5755 7.04454 18.3298 8.58121 18.3298C10.1179 18.3298 11.3636 19.5755 11.3636 21.1121C11.3636 22.6488 10.1179 23.8945 8.58121 23.8945C7.04454 23.8945 5.79883 22.6488 5.79883 21.1121Z" fill="black" stroke="black" stroke-width="0.529978" stroke-linecap="round" stroke-linejoin="round"/>
<path fill-rule="evenodd" clip-rule="evenodd" d="M18.9152 19.9197C18.2566 19.9197 17.7227 20.4536 17.7227 21.1121C17.7227 21.7707 18.2566 22.3046 18.9152 22.3046C19.5738 22.3046 20.1076 21.7707 20.1076 21.1121C20.1076 20.4536 19.5738 19.9197 18.9152 19.9197ZM16.1328 21.1121C16.1328 19.5755 17.3785 18.3298 18.9152 18.3298C20.4519 18.3298 21.6976 19.5755 21.6976 21.1121C21.6976 22.6488 20.4519 23.8945 18.9152 23.8945C17.3785 23.8945 16.1328 22.6488 16.1328 21.1121Z" fill="black" stroke="black" stroke-width="0.529978" stroke-linecap="round" stroke-linejoin="round"/>
</svg>
