<svg width="23" height="23" viewBox="0 0 23 23" fill="none" xmlns="http://www.w3.org/2000/svg">
<path d="M6.03125 12.8759C6.03125 12.3668 6.44394 11.9541 6.95302 11.9541C7.4621 11.9541 7.87479 12.3668 7.87479 12.8759V17.4691C7.87479 17.9782 7.4621 18.3909 6.95302 18.3909C6.44394 18.3909 6.03125 17.9782 6.03125 17.4691V12.8759Z" fill="#000"/>
<path d="M9.71833 4.59999C9.71833 4.09091 10.131 3.67822 10.6401 3.67822C11.1492 3.67822 11.5619 4.09091 11.5619 4.59999V17.4691C11.5619 17.9782 11.1492 18.3909 10.6401 18.3909C10.131 18.3909 9.71833 17.9782 9.71833 17.4691V4.59999Z" fill="#000"/>
<path d="M13.4054 9.19769C13.4054 8.68861 13.8181 8.27592 14.3272 8.27592C14.8363 8.27592 15.249 8.68861 15.249 9.19769V17.4691C15.249 17.9782 14.8363 18.3909 14.3272 18.3909C13.8181 18.3909 13.4054 17.9782 13.4054 17.4691V9.19769Z" fill="#000"/>
<path d="M17.0925 6.43907C17.0925 5.92999 17.5052 5.5173 18.0143 5.5173C18.5233 5.5173 18.936 5.92999 18.936 6.43907V17.4691C18.936 17.9782 18.5233 18.3909 18.0143 18.3909C17.5052 18.3909 17.0925 17.9782 17.0925 17.4691V6.43907Z" fill="#000"/>
</svg>
