<svg width="130" height="106" viewBox="0 0 130 106" fill="none" xmlns="http://www.w3.org/2000/svg">
<g opacity="0.6">
<path d="M88.7324 72.4148V0L-9.15527e-05 0V72.4148H88.7324Z" fill="#EBEBEB"/>
<path d="M89.2676 72.4148V0L88.732 0V72.4148H89.2676Z" fill="#E0E0E0"/>
<path d="M4.37218 68.0253L84.3574 68.0253L84.3574 4.38951L4.37218 4.38951L4.37218 68.0253Z" fill="#F5F5F5"/>
<path d="M40.8027 68.0253H51.544L33.6553 4.38947H22.9141L40.8027 68.0253Z" fill="white"/>
<path d="M32.1836 68.0253H38.3946L20.5059 4.38947H14.2949L32.1836 68.0253Z" fill="white"/>
<path d="M66.6035 68.0253H69.1768L51.2882 4.38947H48.7148L66.6035 68.0253Z" fill="white"/>
<path d="M125.22 103.222H31.5701C30.206 103.222 29.1282 102.104 29.1753 100.735L31.3916 33.5649C31.4354 32.1964 32.5873 31.0779 33.9515 31.0779H127.602C128.966 31.0779 130.044 32.1964 129.996 33.5649L127.78 100.735C127.736 102.104 126.584 103.222 125.22 103.222Z" fill="#E0E0E0"/>
<g opacity="0.6">
<path d="M124.457 103.222H30.8065C29.4423 103.222 28.3645 102.104 28.4116 100.735L30.6279 33.5649C30.6717 32.1964 31.8237 31.0779 33.1878 31.0779H126.838C128.202 31.0779 129.28 32.1964 129.233 33.5649L127.016 100.735C126.973 102.104 125.821 103.222 124.457 103.222Z" fill="#FAFAFA"/>
</g>
<path d="M123.25 103.101H10.1452C8.96633 103.101 7.94576 103.79 7.47421 104.777C7.20475 105.344 7.61904 106 8.25563 106H125.14C125.78 106 126.194 105.344 125.921 104.777C125.45 103.79 124.426 103.101 123.25 103.101Z" fill="#E0E0E0"/>
<path opacity="0.6" d="M10.1449 103.101H100.4C101.579 103.101 102.599 103.79 103.071 104.777C103.34 105.344 102.926 106 102.289 106H8.25537C7.61541 106 7.20112 105.344 7.47395 104.777C7.9455 103.79 8.96944 103.101 10.1449 103.101Z" fill="#FAFAFA"/>
<path opacity="0.3" d="M64.0972 104.946H40.6173C40.038 104.946 39.5664 105.422 39.5664 106H65.1514C65.1514 105.419 64.6799 104.946 64.1006 104.946H64.0972Z" fill="#E0E0E0"/>
<path opacity="0.9" d="M30.647 98.3091L32.7016 35.9979C32.7184 35.464 33.1664 35.0281 33.6986 35.0281H126.059C126.591 35.0281 127.009 35.464 126.992 35.9979L124.937 98.3091C124.92 98.843 124.472 99.2789 123.94 99.2789H31.58C31.0478 99.2789 30.6301 98.843 30.647 98.3091Z" fill="white"/>
<path d="M33.0964 95.6564L34.9793 38.5694C34.9995 37.9138 35.535 37.3934 36.1885 37.3934H123.338C124.022 37.3934 124.571 37.9611 124.547 38.6471L122.664 95.7341C122.644 96.3897 122.109 96.9101 121.455 96.9101H34.3056C33.6219 96.9101 33.0729 96.3424 33.0964 95.6564Z" fill="#F0F0F0"/>
<path d="M104.189 99.2789H119.501L101.855 35.0281H86.543L104.189 99.2789Z" fill="white"/>
<path d="M94.4391 99.2789H99.9461L82.3034 35.0281H76.793L94.4391 99.2789Z" fill="white"/>
<path d="M63.0875 99.2789H68.5946L50.9518 35.0281H45.4414L63.0875 99.2789Z" fill="white"/>
<path opacity="0.4" d="M80.6682 71.8031C80.6547 72.2053 80.3179 72.533 79.9171 72.533C79.5163 72.533 79.203 72.2053 79.2131 71.8031C79.2266 71.401 79.5634 71.0732 79.9642 71.0732C80.3651 71.0732 80.6783 71.401 80.6682 71.8031Z" fill="white"/>
</g>
</svg>
