<svg width="33" height="33" viewBox="0 0 33 33" fill="none" xmlns="http://www.w3.org/2000/svg">
<rect x="0.5" y="0.895996" width="32" height="32" rx="6" fill="black"/>
<path d="M16.223 7.896C16.177 11.544 15.929 13.596 14.561 14.964C13.194 16.332 11.145 16.58 7.5 16.626V17.166C11.145 17.211 13.194 17.46 14.561 18.828C15.929 20.197 16.178 22.248 16.223 25.896H16.762C16.807 22.248 17.056 20.196 18.423 18.828C19.79 17.46 21.839 17.211 25.485 17.166V16.626C21.839 16.581 19.79 16.332 18.423 14.964C17.056 13.595 16.807 11.544 16.762 7.896H16.223Z" fill="white"/>
</svg>
