<svg width="33" height="32" viewBox="0 0 33 32" fill="none" xmlns="http://www.w3.org/2000/svg">
<path fill-rule="evenodd" clip-rule="evenodd" d="M3.76285 6.32428C4.13604 5.91716 4.76861 5.88966 5.17573 6.26285L16.5 16.6434L27.8243 6.26285C28.2314 5.88966 28.864 5.91716 29.2372 6.32428C29.6104 6.7314 29.5828 7.36397 29.1757 7.73716L17.1757 18.7372C16.7934 19.0876 16.2066 19.0876 15.8243 18.7372L3.82428 7.73716C3.41716 7.36397 3.38966 6.7314 3.76285 6.32428Z" fill="black"/>
<path fill-rule="evenodd" clip-rule="evenodd" d="M3.5 7C3.5 6.44772 3.94772 6 4.5 6H28.5C29.0523 6 29.5 6.44772 29.5 7V24C29.5 24.5304 29.2893 25.0391 28.9142 25.4142C28.5391 25.7893 28.0304 26 27.5 26H5.5C4.96957 26 4.46086 25.7893 4.08579 25.4142C3.71071 25.0391 3.5 24.5304 3.5 24V7ZM5.5 8V24H27.5V8H5.5Z" fill="black"/>
<path fill-rule="evenodd" clip-rule="evenodd" d="M15.0495 15.3241C15.4228 15.7311 15.3954 16.3637 14.9884 16.737L5.48841 25.4495C5.08138 25.8228 4.4488 25.7954 4.07551 25.3884C3.70222 24.9814 3.72958 24.3488 4.13661 23.9755L13.6366 15.263C14.0436 14.8897 14.6762 14.9171 15.0495 15.3241Z" fill="black"/>
<path fill-rule="evenodd" clip-rule="evenodd" d="M17.9505 15.3241C18.3238 14.9171 18.9564 14.8897 19.3634 15.263L28.8634 23.9755C29.2704 24.3488 29.2978 24.9814 28.9245 25.3884C28.5512 25.7954 27.9186 25.8228 27.5116 25.4495L18.0116 16.737C17.6046 16.3637 17.5772 15.7311 17.9505 15.3241Z" fill="black"/>
</svg>
