<svg width="18" height="18" viewBox="0 0 18 18" fill="none" xmlns="http://www.w3.org/2000/svg">
<path d="M9 1.5C13.1423 1.5 16.5 4.85775 16.5 9C16.5 13.1423 13.1423 16.5 9 16.5C5.11052 16.5 1.91271 13.5395 1.53692 9.74895C1.49606 9.33676 1.83579 9 2.25 9C2.66421 9 2.99508 9.33747 3.04624 9.74851C3.4147 12.7088 5.93998 15 9 15C12.3135 15 15 12.3135 15 9C15 5.6865 12.3135 3 9 3C6.9375 3 5.118 4.04025 4.03875 5.625H5.25C5.66421 5.625 6 5.96079 6 6.375C6 6.78921 5.66421 7.125 5.25 7.125H2.0852C1.762 7.125 1.5 6.863 1.5 6.5398V3.375C1.5 2.96079 1.83579 2.625 2.25 2.625C2.66421 2.625 3 2.96079 3 3.375V4.5C4.368 2.6775 6.54675 1.5 9 1.5ZM9 5.25C9.41421 5.25 9.75 5.58579 9.75 6V8.68875L11.6517 10.5904C11.9447 10.8835 11.9447 11.3585 11.6517 11.6516C11.3586 11.9446 10.8834 11.9446 10.5904 11.6514L8.41728 9.47712C8.31017 9.36995 8.25 9.22463 8.25 9.07312V6C8.25 5.58579 8.58579 5.25 9 5.25Z" fill="black"/>
</svg>
