<svg width="20" height="20" viewBox="0 0 20 20" fill="none" xmlns="http://www.w3.org/2000/svg">
<path d="M0.833008 10.187C0.833008 8.08879 0.833008 7.04012 1.30967 6.17112C1.78451 5.30121 2.65442 4.76221 4.39334 3.68237L6.22667 2.54479C8.06459 1.40354 8.98401 0.833374 9.99967 0.833374C11.0153 0.833374 11.9338 1.40354 13.7727 2.54479L15.606 3.68237C17.3449 4.76221 18.2148 5.30121 18.6906 6.17112C19.1663 7.04012 19.1663 8.08879 19.1663 10.1861V11.5813C19.1663 15.1563 19.1663 16.9447 18.092 18.0557C17.0186 19.1667 15.2898 19.1667 11.833 19.1667H8.16634C4.70959 19.1667 2.98076 19.1667 1.90734 18.0557C0.833008 16.9447 0.833008 15.1572 0.833008 11.5813V10.187Z" stroke="#333333" stroke-width="1.375"/>
<path d="M7.25 13.6667C8.02917 14.2442 8.97792 14.5834 10 14.5834C11.0221 14.5834 11.9708 14.2442 12.75 13.6667" stroke="#333333" stroke-width="1.375" stroke-linecap="round"/>
</svg>
