<svg width="16" height="18" viewBox="0 0 16 18" fill="none" xmlns="http://www.w3.org/2000/svg">
<path fill-rule="evenodd" clip-rule="evenodd" d="M13.9945 7.26462L14.601 8.174C15.1871 9.05407 15.5 10.0875 15.4999 11.1442V13.5C15.4999 13.9142 15.1642 14.25 14.75 14.25H11.75C11.3358 14.25 11 13.9142 11 13.5V11.1442C11 10.0875 11.3128 9.05407 11.8992 8.17362L12.4936 7.28248C12.3811 5.31116 10.7497 3.75001 8.74998 3.75001H7.24997V4.50007H8.74998C9.16419 4.50007 9.49996 4.83585 9.49996 5.25006V17.25C9.49996 17.6642 9.16419 18 8.74998 18H1.24999C0.835777 18 0.5 17.6642 0.5 17.25V13.5V8.25001V5.25002C0.5 4.83581 0.835777 4.50004 1.24999 4.50004H2.75V3.74998H1.24999C0.835777 3.74998 0.5 3.4142 0.5 2.99999V0.749988C0.5 0.335777 0.835777 0 1.24999 0H6.49998C6.91422 0 7.25 0.335777 7.24997 0.749988V2.25H9.49996C9.6575 2.25 9.8035 2.2988 9.9242 2.38177C12.1856 2.89772 13.8891 4.87223 13.9945 7.26462ZM1.99998 1.50001V2.25H3.49999C3.9142 2.25 4.24998 2.58578 4.24998 2.99999V4.5H5.74999V1.50001H1.99998ZM12.5 12.75H14L14 11.1442C14 10.3835 13.7746 9.63939 13.3527 9.00587L13.25 8.85175L13.1475 9.00548C12.7253 9.63939 12.5 10.3835 12.5 11.1442V12.75ZM1.99998 16.5001H7.99999V6.00008H1.99998V7.50009V14.2501V16.5001Z" fill="black"/>
</svg>
