<svg width="18" height="18" viewBox="0 0 18 18" fill="none" xmlns="http://www.w3.org/2000/svg">
<path d="M14.2611 4.19407C14.3199 4.3461 14.3311 4.51241 14.2932 4.67094C14.2932 4.67111 14.2931 4.67127 14.2931 4.67143L13.7511 6.83039L13.7097 6.99518L13.8739 6.95136L16.0049 6.38247C16.0052 6.38239 16.0055 6.38232 16.0058 6.38224C16.1592 6.34462 16.3203 6.35305 16.469 6.40649C16.618 6.46003 16.7479 6.55637 16.8423 6.68342C16.9367 6.81047 16.9915 6.96258 16.9998 7.12067C17.0082 7.2787 16.9696 7.43567 16.8891 7.5719C16.8891 7.57195 16.889 7.57199 16.889 7.57203L14.1781 12.0903L14.178 12.0903L14.1761 12.0938C14.108 12.2182 14.0082 12.3225 13.8868 12.3959C13.7656 12.4691 13.6272 12.5091 13.4857 12.5117H4.44897C4.44896 12.5117 4.44895 12.5117 4.44895 12.5117C4.30947 12.5117 4.17239 12.4754 4.0512 12.4063C3.93001 12.3372 3.82887 12.2378 3.75773 12.1179L3.75746 12.1174L1.04618 7.5986L1.04623 7.59857L1.04429 7.59557C0.955623 7.45909 0.910481 7.29891 0.914831 7.13622C0.919181 6.97353 0.972818 6.81599 1.06865 6.68444C1.16448 6.5529 1.29798 6.45354 1.4515 6.39952C1.60503 6.34549 1.77133 6.33935 1.92842 6.38189L1.93022 6.38236L4.09021 6.92462L4.25499 6.96599L4.21117 6.80184L3.64198 4.66961C3.60247 4.51274 3.61121 4.34759 3.66707 4.19576C3.72291 4.044 3.82322 3.91261 3.95489 3.81877C4.08847 3.72751 4.24649 3.67868 4.40828 3.67868C4.57037 3.67868 4.72867 3.72769 4.86241 3.81927L4.86239 3.81929L4.86411 3.82041L6.67164 5.00434L6.77388 5.07131L6.81928 4.95783L8.21107 1.47834L8.21122 1.47796C8.27048 1.32804 8.37344 1.1994 8.50674 1.10875C8.64004 1.0181 8.79752 0.969629 8.95872 0.969629C9.11993 0.969629 9.2774 1.0181 9.41071 1.10875C9.54401 1.1994 9.64697 1.32804 9.70622 1.47796L9.70637 1.47834L11.0982 4.95783L11.1436 5.07131L11.2458 5.00434L13.0533 3.82041L13.0533 3.82043L13.055 3.81927C13.1888 3.72769 13.3471 3.67868 13.5092 3.67868C13.6713 3.67868 13.8296 3.72769 13.9633 3.81927L13.9635 3.81944C14.0985 3.91122 14.2023 4.04189 14.2611 4.19407ZM4.87844 10.8558L4.90759 10.9042H4.96409H12.9714H13.0279L13.0571 10.8558L14.3856 8.65061L14.5131 8.43906L14.2743 8.50234L12.7741 8.89999L12.7741 8.89997L12.7717 8.90066C12.6334 8.941 12.4868 8.94342 12.3472 8.90766C12.2076 8.8719 12.0802 8.79928 11.9783 8.69739C11.8764 8.5955 11.8038 8.4681 11.768 8.32852C11.7323 8.18894 11.7347 8.04232 11.775 7.90399L11.7751 7.90401L11.7761 7.90009L12.1105 6.55349L12.1722 6.30505L11.9584 6.44588L11.1902 6.95199L11.19 6.95213C11.0906 7.01801 10.9778 7.06094 10.8597 7.07781C10.7417 7.09469 10.6213 7.08507 10.5074 7.04968C10.3936 7.01428 10.289 6.95399 10.2013 6.87317C10.1137 6.79249 10.0452 6.69336 10.0007 6.58297C10.0006 6.58278 10.0005 6.58259 10.0004 6.5824L9.06099 4.1615L8.96908 3.92467L8.87489 4.1606L7.90797 6.5824C7.90796 6.58244 7.90794 6.58248 7.90793 6.58252C7.86338 6.69309 7.79478 6.79237 7.70712 6.87317C7.61943 6.95399 7.51485 7.01428 7.40097 7.04968C7.28708 7.08507 7.16675 7.09469 7.0487 7.07781C6.93064 7.06094 6.81782 7.01801 6.71841 6.95213L6.71818 6.95199L5.94998 6.44588L5.73012 6.30103L5.79839 6.55531L6.15989 7.90192L6.15987 7.90193L6.16047 7.90399C6.20082 8.04232 6.20324 8.18894 6.16748 8.32852C6.13172 8.4681 6.05909 8.5955 5.95721 8.69739C5.85532 8.79928 5.72792 8.8719 5.58834 8.90766C5.44876 8.94342 5.30213 8.941 5.16381 8.90066L5.16382 8.90063L5.16143 8.89999L3.66118 8.50234L3.42246 8.43906L3.54991 8.65061L4.87844 10.8558ZM16.6046 16.9769C16.7501 17.0788 16.9239 17.1325 17.1016 17.1305C17.2505 17.1297 17.3968 17.0922 17.5277 17.0213C17.6586 16.9503 17.7699 16.8481 17.8517 16.7238L16.6046 16.9769ZM17.8839 16.068C17.9261 16.2757 17.8845 16.4916 17.7682 16.6688C17.6954 16.7794 17.5964 16.8703 17.48 16.9334C17.3637 16.9965 17.2335 17.0298 17.1011 17.0305L17.1005 17.0305C16.9437 17.0323 16.7903 16.9849 16.6619 16.895L16.66 16.8937L15.3044 15.9899L15.3038 15.9895C15.0325 15.8113 14.715 15.7163 14.3903 15.7163C14.0657 15.7163 13.7482 15.8113 13.4768 15.9895L13.4762 15.99C12.9442 16.3454 12.3188 16.5351 11.679 16.5351C11.0393 16.5351 10.4139 16.3454 9.88189 15.99L9.88125 15.9895C9.60994 15.8113 9.2924 15.7163 8.96776 15.7163C8.64312 15.7163 8.32558 15.8113 8.05427 15.9895L8.05363 15.99C7.52167 16.3454 6.89625 16.5351 6.25647 16.5351C5.61669 16.5351 4.99128 16.3454 4.45932 15.99L4.45867 15.9895C4.18736 15.8113 3.86982 15.7163 3.54519 15.7163C3.22055 15.7163 2.90301 15.8113 2.6317 15.9895L2.63114 15.9899L1.27961 16.8909C1.10405 16.9838 0.900257 17.0084 0.707548 16.9599L0.683135 17.0569L0.707547 16.9599C0.513339 16.911 0.344379 16.7914 0.233755 16.6244C0.123131 16.4575 0.0788144 16.2553 0.109484 16.0574C0.139929 15.8609 0.242093 15.6828 0.396157 15.5573L1.74794 14.6561L1.74803 14.656C2.27999 14.3006 2.90541 14.1109 3.54519 14.1109C4.18497 14.1109 4.81038 14.3006 5.34234 14.656L5.34299 14.6564C5.6143 14.8347 5.93184 14.9297 6.25647 14.9297C6.58111 14.9297 6.89865 14.8347 7.16996 14.6564L7.1706 14.656C7.70257 14.3006 8.32798 14.1109 8.96776 14.1109C9.60754 14.1109 10.233 14.3006 10.7649 14.656L10.7656 14.6564C11.0369 14.8347 11.3544 14.9297 11.679 14.9297C12.0037 14.9297 12.3212 14.8347 12.5925 14.6564L12.5932 14.656C13.1251 14.3006 13.7506 14.1109 14.3903 14.1109C15.0301 14.1109 15.6555 14.3006 16.1875 14.656L16.1876 14.6561L17.5431 15.5598C17.7193 15.6776 17.8418 15.8603 17.8839 16.068Z" fill="black" stroke="white" stroke-width="0.2"/>
</svg>
