<svg width="14" height="18" viewBox="0 0 14 18" fill="none" xmlns="http://www.w3.org/2000/svg">
<path d="M10.5992 18H3.39922C1.91422 18 0.699219 16.785 0.699219 15.3V2.7C0.699219 1.215 1.91422 0 3.39922 0H10.5992C12.0842 0 13.2992 1.215 13.2992 2.7V15.3C13.2992 16.785 12.0842 18 10.5992 18ZM3.39922 1.8C2.90422 1.8 2.49922 2.205 2.49922 2.7V15.3C2.49922 15.795 2.90422 16.2 3.39922 16.2H10.5992C11.0942 16.2 11.4992 15.795 11.4992 15.3V2.7C11.4992 2.205 11.0942 1.8 10.5992 1.8H3.39922Z" fill="black"/>
<path d="M7.60133 15.3H6.38633C5.89133 15.3 5.48633 14.895 5.48633 14.4C5.48633 13.905 5.89133 13.5 6.38633 13.5H7.60133C8.09633 13.5 8.50133 13.905 8.50133 14.4C8.50133 14.895 8.09633 15.3 7.60133 15.3Z" fill="black"/>
</svg>
