<svg width="18" height="18" viewBox="0 0 18 18" fill="none" xmlns="http://www.w3.org/2000/svg">
<g clip-path="url(#clip0_2200_19451)">
<path d="M2.95312 13.5999C3.66204 12.1727 4.02958 10.6003 4.02676 9.00668C4.02744 8.23187 4.20183 7.46708 4.53712 6.76857C4.8724 6.07006 5.36004 5.45562 5.96415 4.97046" stroke="black" stroke-width="1.6" stroke-linecap="round" stroke-linejoin="round"/>
<path d="M9.19325 9.00659C9.19675 11.6331 8.52991 14.2171 7.25586 16.514" stroke="black" stroke-width="1.6" stroke-linecap="round" stroke-linejoin="round"/>
<path d="M6.61133 9.00652C6.61133 8.32142 6.88348 7.66438 7.36792 7.17994C7.85237 6.6955 8.50941 6.42334 9.19451 6.42334C9.87961 6.42334 10.5367 6.6955 11.0211 7.17994C11.5055 7.66438 11.7777 8.32142 11.7777 9.00652C11.783 11.6693 11.1957 14.3 10.0583 16.7076" stroke="black" stroke-width="1.6" stroke-linecap="round" stroke-linejoin="round"/>
<path d="M16.5072 13.5272C16.7963 12.0377 16.9423 10.5239 16.9431 9.00663C16.9431 6.95132 16.1266 4.98019 14.6733 3.52687C13.22 2.07355 11.2488 1.25708 9.19353 1.25708C7.13822 1.25708 5.1671 2.07355 3.71377 3.52687C2.26045 4.98019 1.44398 6.95132 1.44398 9.00663C1.44629 9.88687 1.29608 10.7609 1 11.5898" stroke="black" stroke-width="1.6" stroke-linecap="round" stroke-linejoin="round"/>
<path d="M6.35174 11.5898C6.0729 12.9481 5.5797 14.2533 4.89062 15.4565" stroke="black" stroke-width="1.6" stroke-linecap="round" stroke-linejoin="round"/>
<path d="M8.54688 3.88069C8.76119 3.85493 8.97681 3.84146 9.19267 3.84033C10.5629 3.84033 11.877 4.38464 12.8458 5.35352C13.8147 6.32241 14.359 7.63649 14.359 9.0067C14.3583 9.87025 14.3044 10.7329 14.1976 11.5899" stroke="black" stroke-width="1.6" stroke-linecap="round" stroke-linejoin="round"/>
<path d="M13.7066 14.1731C13.5855 14.6494 13.4483 15.1256 13.2949 15.5858" stroke="black" stroke-width="1.6" stroke-linecap="round" stroke-linejoin="round"/>
</g>
<defs>
<clipPath id="clip0_2200_19451">
<rect width="18" height="18" fill="white"/>
</clipPath>
</defs>
</svg>
