<svg width="18" height="18" viewBox="0 0 18 18" fill="none" xmlns="http://www.w3.org/2000/svg">
<path fill-rule="evenodd" clip-rule="evenodd" d="M8.99925 2.077C5.94044 2.077 3.46079 4.55665 3.46079 7.61546C3.46079 10.6743 5.94044 13.1539 8.99925 13.1539C12.0581 13.1539 14.5377 10.6743 14.5377 7.61546C14.5377 4.55665 12.0581 2.077 8.99925 2.077ZM2.07617 7.61546C2.07617 3.79195 5.17574 0.692383 8.99925 0.692383C12.8228 0.692383 15.9223 3.79195 15.9223 7.61546C15.9223 11.439 12.8228 14.5385 8.99925 14.5385C5.17574 14.5385 2.07617 11.439 2.07617 7.61546Z" fill="black"/>
<path fill-rule="evenodd" clip-rule="evenodd" d="M9.0006 5.53867C7.85355 5.53867 6.92368 6.46854 6.92368 7.61559C6.92368 8.76264 7.85355 9.69251 9.0006 9.69251C10.1477 9.69251 11.0775 8.76264 11.0775 7.61559C11.0775 6.46854 10.1477 5.53867 9.0006 5.53867ZM5.53906 7.61559C5.53906 5.70384 7.08885 4.15405 9.0006 4.15405C10.9124 4.15405 12.4621 5.70384 12.4621 7.61559C12.4621 9.52735 10.9124 11.0771 9.0006 11.0771C7.08885 11.0771 5.53906 9.52735 5.53906 7.61559Z" fill="black"/>
<path fill-rule="evenodd" clip-rule="evenodd" d="M9.0009 13.1541C9.38325 13.1541 9.69321 13.464 9.69321 13.8464V16.6156C9.69321 16.9979 9.38325 17.3079 9.0009 17.3079C8.61855 17.3079 8.30859 16.9979 8.30859 16.6156V13.8464C8.30859 13.464 8.61855 13.1541 9.0009 13.1541Z" fill="black"/>
<path fill-rule="evenodd" clip-rule="evenodd" d="M0 16.6154C0 16.2331 0.309957 15.9231 0.692308 15.9231H17.3077C17.69 15.9231 18 16.2331 18 16.6154C18 16.9978 17.69 17.3077 17.3077 17.3077H0.692308C0.309957 17.3077 0 16.9978 0 16.6154Z" fill="black"/>
</svg>
