<svg width="20" height="20" viewBox="0 0 20 20" fill="none" xmlns="http://www.w3.org/2000/svg">
<path d="M17.0605 1H2.93936C1.86998 1 1 1.86998 1 2.9395V17.0606C1 18.13 1.86998 19 2.93936 19H17.0605C18.13 19 19 18.13 19 17.0606V2.9395C19 1.86998 18.13 1 17.0605 1ZM2.05469 17.0606V2.9395C2.05469 2.45157 2.45157 2.05469 2.93936 2.05469H9.47266V17.9453H2.93936C2.45157 17.9453 2.05469 17.5484 2.05469 17.0606ZM17.9453 17.0606C17.9453 17.5484 17.5484 17.9453 17.0605 17.9453H10.5273V2.05469H17.0605C17.5484 2.05469 17.9453 2.45157 17.9453 2.9395V17.0606Z" fill="black" stroke="black" stroke-width="0.4"/>
<path d="M13.4609 11.1672C13.1698 11.1672 12.9336 11.4033 12.9336 11.6946V13.9541C12.9336 14.2452 13.1698 14.4814 13.4609 14.4814C13.7522 14.4814 13.9883 14.2452 13.9883 13.9541V11.6946C13.9883 11.4033 13.7522 11.1672 13.4609 11.1672Z" fill="black" stroke="black" stroke-width="0.4"/>
<path d="M6.53906 11.1672C6.24779 11.1672 6.01172 11.4033 6.01172 11.6946V13.9541C6.01172 14.2452 6.24779 14.4814 6.53906 14.4814C6.8302 14.4814 7.06641 14.2452 7.06641 13.9541V11.6946C7.06641 11.4033 6.83034 11.1672 6.53906 11.1672Z" fill="black" stroke="black" stroke-width="0.4"/>
</svg>
