<svg width="16" height="18" viewBox="0 0 16 18" fill="none" xmlns="http://www.w3.org/2000/svg">
<path d="M8.00273 14.3C4.08896 14.3 0.902734 11.1138 0.902734 7.2C0.902734 3.28623 4.08896 0.1 8.00273 0.1C11.9165 0.1 15.1027 3.28623 15.1027 7.2C15.1027 11.1138 11.9165 14.3 8.00273 14.3ZM8.00273 1.7C4.96851 1.7 2.50273 4.16577 2.50273 7.2C2.50273 10.2342 4.96851 12.7 8.00273 12.7C11.037 12.7 13.5027 10.2342 13.5027 7.2C13.5027 4.16577 11.037 1.7 8.00273 1.7Z" fill="black" stroke="black" stroke-width="0.2"/>
<path d="M8.0043 10.7001C6.07053 10.7001 4.5043 9.13387 4.5043 7.2001C4.5043 5.26633 6.07053 3.7001 8.0043 3.7001C9.93807 3.7001 11.5043 5.26633 11.5043 7.2001C11.5043 9.13387 9.93807 10.7001 8.0043 10.7001ZM8.0043 5.3001C6.95907 5.3001 6.1043 6.15487 6.1043 7.2001C6.1043 8.24533 6.95907 9.1001 8.0043 9.1001C9.04953 9.1001 9.9043 8.24533 9.9043 7.2001C9.9043 6.15487 9.04953 5.3001 8.0043 5.3001Z" fill="black" stroke="black" stroke-width="0.2"/>
<path d="M13.135 17.9H2.86595C1.95556 17.9 1.13277 17.4409 0.65602 16.6694C0.179128 15.8977 0.135909 14.9534 0.534587 14.1473L2.2624 10.6557C2.26243 10.6557 2.26246 10.6556 2.26249 10.6555C2.46318 10.2544 2.94299 10.0958 3.3335 10.2951L3.33423 10.2954C3.7355 10.4961 3.89415 10.976 3.69488 11.3665L3.69433 11.3676L1.96633 14.8596L1.96632 14.8596L1.96594 14.8604C1.81684 15.1686 1.82599 15.529 2.01582 15.8295C2.19715 16.1309 2.5185 16.3 2.86595 16.3H13.135C13.4845 16.3 13.8046 16.1202 13.9849 15.8297L13.9857 15.8284C14.1645 15.5305 14.1852 15.1708 14.035 14.8604L14.0346 14.8596L12.3066 11.3676L12.3066 11.3676L12.306 11.3665C12.1073 10.9771 12.2732 10.4962 12.6674 10.2951C13.0567 10.0965 13.5373 10.2621 13.7386 10.6559C13.7387 10.6561 13.7388 10.6563 13.7389 10.6564L15.4661 14.147C15.4661 14.147 15.4662 14.147 15.4662 14.1471C15.8652 14.9626 15.8215 15.9069 15.3452 16.669L15.3449 16.6694C14.8681 17.4409 14.0453 17.9 13.135 17.9Z" fill="black" stroke="black" stroke-width="0.2"/>
</svg>
