<svg width="18" height="18" viewBox="0 0 18 18" fill="none" xmlns="http://www.w3.org/2000/svg">
<path d="M3.1 13V12.9H3H1C0.761312 12.9 0.532398 12.8052 0.363617 12.6364C0.194836 12.4676 0.100011 12.2387 0.1 12V2.00005C0.100502 1.49628 0.300847 1.01329 0.657067 0.657067C1.0133 0.300836 1.49631 0.10049 2.0001 0.1L15.9999 0.1C16.5037 0.100502 16.9867 0.300847 17.3429 0.657067C17.6992 1.0133 17.8995 1.49631 17.9 2.0001V12C17.9 12.2387 17.8052 12.4676 17.6364 12.6364C17.4676 12.8052 17.2387 12.9 17 12.9H15H14.9V13V15C14.9 15.2387 14.8052 15.4676 14.6364 15.6364C14.4676 15.8052 14.2387 15.9 14 15.9H12.5H12.4V16V17C12.4 17.2387 12.3052 17.4676 12.1364 17.6364C11.9676 17.8052 11.7387 17.9 11.5 17.9H6.5C6.26131 17.9 6.0324 17.8052 5.86362 17.6364C5.69484 17.4676 5.60001 17.2387 5.6 17V16V15.9H5.5H4C3.76131 15.9 3.5324 15.8052 3.36362 15.6364C3.19484 15.4676 3.10001 15.2387 3.1 15V13ZM13 14.1H13.1V14V12C13.1 11.7613 13.1948 11.5324 13.3636 11.3636C13.5324 11.1948 13.7613 11.1 14 11.1H16H16.1V11V2V1.9H16H12H11.9V2V6C11.9 6.23869 11.8052 6.46761 11.6364 6.6364C11.4676 6.80518 11.2387 6.9 11 6.9C10.7613 6.9 10.5324 6.80518 10.3636 6.6364C10.1948 6.46761 10.1 6.23869 10.1 6V2V1.9H10H8H7.9V2V6C7.9 6.23869 7.80518 6.46761 7.6364 6.6364C7.46761 6.80518 7.23869 6.9 7 6.9C6.76131 6.9 6.53239 6.80518 6.3636 6.6364C6.19482 6.46761 6.1 6.23869 6.1 6V2V1.9H6H2H1.9V2V11V11.1H2H4C4.23869 11.1 4.4676 11.1948 4.63638 11.3636C4.80516 11.5324 4.89999 11.7613 4.9 12V14V14.1H5H6.5C6.73869 14.1 6.9676 14.1948 7.13638 14.3636C7.30516 14.5324 7.39999 14.7613 7.4 15V16V16.1H7.5H10.5H10.6V16V15C10.6 14.7613 10.6948 14.5324 10.8636 14.3636C11.0324 14.1948 11.2613 14.1 11.5 14.1H13Z" fill="black" stroke="white" stroke-width="0.2"/>
</svg>
