<svg width="18" height="18" viewBox="0 0 18 18" fill="none" xmlns="http://www.w3.org/2000/svg">
<path d="M15.4286 7.13571C15.4297 7.1143 15.4297 7.09284 15.4286 7.07143V3.53571C15.4286 2.59798 15.0561 1.69866 14.393 1.03559C13.7299 0.372512 12.8306 0 11.8929 0C10.9551 0 10.0558 0.372512 9.39273 1.03559C8.72965 1.69866 8.35714 2.59798 8.35714 3.53571V14.4643C8.35714 15.061 8.12009 15.6333 7.69813 16.0553C7.27618 16.4772 6.70388 16.7143 6.10714 16.7143C5.51041 16.7143 4.93811 16.4772 4.51615 16.0553C4.0942 15.6333 3.85714 15.061 3.85714 14.4643V10.8643C4.58316 10.7161 5.23568 10.3216 5.70427 9.74758C6.17285 9.17356 6.42872 8.45528 6.42857 7.71429V3.21429C6.42857 3.04379 6.36084 2.88028 6.24028 2.75972C6.11972 2.63916 5.95621 2.57143 5.78571 2.57143V1.92857C5.78571 1.41708 5.58253 0.926543 5.22085 0.564866C4.85917 0.203188 4.36863 0 3.85714 0H2.57143C2.05994 0 1.5694 0.203188 1.20772 0.564866C0.846045 0.926543 0.642857 1.41708 0.642857 1.92857V2.57143C0.472361 2.57143 0.308848 2.63916 0.188289 2.75972C0.0677294 2.88028 6.70039e-08 3.04379 6.70039e-08 3.21429V7.71429C-0.000151168 8.45528 0.255718 9.17356 0.724303 9.74758C1.19289 10.3216 1.84541 10.7161 2.57143 10.8643V14.4643C2.57143 15.402 2.94394 16.3013 3.60702 16.9644C4.27009 17.6275 5.16941 18 6.10714 18C7.04487 18 7.9442 17.6275 8.60727 16.9644C9.27035 16.3013 9.64286 15.402 9.64286 14.4643V3.53571C9.64286 2.93898 9.87991 2.36668 10.3019 1.94472C10.7238 1.52277 11.2961 1.28571 11.8929 1.28571C12.4896 1.28571 13.0619 1.52277 13.4838 1.94472C13.9058 2.36668 14.1429 2.93898 14.1429 3.53571V7.07143C14.1417 7.09284 14.1417 7.1143 14.1429 7.13571C13.4168 7.28391 12.7643 7.6784 12.2957 8.25242C11.8271 8.82644 11.5713 9.54472 11.5714 10.2857V14.7857C11.5714 14.9562 11.6392 15.1197 11.7597 15.2403C11.8803 15.3608 12.0438 15.4286 12.2143 15.4286V16.0714C12.2143 16.5829 12.4175 17.0735 12.7792 17.4351C13.1408 17.7968 13.6314 18 14.1429 18H15.4286C15.9401 18 16.4306 17.7968 16.7923 17.4351C17.154 17.0735 17.3571 16.5829 17.3571 16.0714V15.4286C17.5276 15.4286 17.6912 15.3608 17.8117 15.2403C17.9323 15.1197 18 14.9562 18 14.7857V10.2857C18.0002 9.54472 17.7443 8.82644 17.2757 8.25242C16.8071 7.6784 16.1546 7.28391 15.4286 7.13571ZM1.92857 1.92857C1.92857 1.75808 1.9963 1.59456 2.11686 1.474C2.23742 1.35344 2.40093 1.28571 2.57143 1.28571H3.85714C4.02764 1.28571 4.19115 1.35344 4.31171 1.474C4.43227 1.59456 4.5 1.75808 4.5 1.92857V2.57143H1.92857V1.92857ZM1.28571 7.71429V3.85714H5.14286V7.71429C5.14286 8.22577 4.93967 8.71631 4.57799 9.07799C4.21631 9.43967 3.72577 9.64286 3.21429 9.64286C2.7028 9.64286 2.21226 9.43967 1.85058 9.07799C1.4889 8.71631 1.28571 8.22577 1.28571 7.71429ZM12.8571 10.2857C12.8571 9.77423 13.0603 9.28369 13.422 8.92201C13.7837 8.56033 14.2742 8.35714 14.7857 8.35714C15.2972 8.35714 15.7877 8.56033 16.1494 8.92201C16.5111 9.28369 16.7143 9.77423 16.7143 10.2857V14.1429H12.8571V10.2857ZM16.0714 16.0714C16.0714 16.2419 16.0037 16.4054 15.8831 16.526C15.7626 16.6466 15.5991 16.7143 15.4286 16.7143H14.1429C13.9724 16.7143 13.8088 16.6466 13.6883 16.526C13.5677 16.4054 13.5 16.2419 13.5 16.0714V15.4286H16.0714V16.0714Z" fill="black"/>
</svg>
