<svg width="18" height="18" viewBox="0 0 18 18" fill="none" xmlns="http://www.w3.org/2000/svg">
<path d="M9.89969 17.1004C9.69525 17.1005 9.49687 17.031 9.33721 16.9033L5.08394 13.5005H0.899972C0.661284 13.5005 0.432373 13.4057 0.263596 13.2369C0.0948181 13.0681 0 12.8392 0 12.6005V5.40075C0 5.16207 0.0948181 4.93316 0.263596 4.76438C0.432373 4.5956 0.661284 4.50078 0.899972 4.50078H5.08394L9.33721 1.09709C9.46965 0.991053 9.62936 0.924612 9.79793 0.90543C9.96651 0.886247 10.1371 0.915105 10.2899 0.988675C10.4428 1.06224 10.5718 1.17753 10.662 1.32123C10.7522 1.46494 10.7999 1.63121 10.7997 1.80087V16.2004C10.7997 16.4391 10.7048 16.668 10.5361 16.8368C10.3673 17.0056 10.1384 17.1004 9.89969 17.1004ZM1.79994 11.7006H5.39983C5.60427 11.7005 5.80265 11.77 5.96231 11.8976L8.99972 14.3276V3.67461L5.96231 6.10453C5.80232 6.23151 5.60409 6.30065 5.39983 6.30073H1.79994V11.7006Z" fill="black"/>
<path d="M14.4005 15.5165C14.214 15.5164 14.0322 15.4584 13.8801 15.3505C13.7281 15.2426 13.6133 15.0901 13.5516 14.9141C13.49 14.7381 13.4845 14.5474 13.536 14.3681C13.5874 14.1889 13.6933 14.0301 13.8389 13.9137C14.5758 13.3243 15.1708 12.5767 15.5796 11.7263C15.9884 10.8758 16.2007 9.94433 16.2007 9.00072C16.2007 8.05711 15.9884 7.12559 15.5796 6.27514C15.1708 5.4247 14.5758 4.67712 13.8389 4.08777C13.7432 4.01522 13.6629 3.92424 13.6029 3.82018C13.5428 3.71612 13.5042 3.60109 13.4893 3.48188C13.4745 3.36267 13.4836 3.24169 13.5162 3.12606C13.5489 3.01044 13.6043 2.90252 13.6793 2.80866C13.7543 2.7148 13.8473 2.63691 13.9529 2.57957C14.0584 2.52224 14.1744 2.48662 14.294 2.47481C14.4135 2.46301 14.5342 2.47526 14.649 2.51085C14.7637 2.54644 14.8702 2.60464 14.9621 2.68202C15.91 3.43989 16.6753 4.40134 17.2012 5.49514C17.7272 6.58894 18.0002 7.78705 18.0002 9.00072C18.0002 10.2144 17.7272 11.4125 17.2012 12.5063C16.6753 13.6001 15.91 14.5615 14.9621 15.3194C14.8029 15.4473 14.6047 15.5168 14.4005 15.5165Z" fill="black"/>
<path d="M13.4996 12.6007C13.2609 12.6007 13.032 12.5058 12.8632 12.3371C12.6944 12.1683 12.5996 11.9394 12.5996 11.7007V6.30085C12.5996 6.06216 12.6944 5.83325 12.8632 5.66447C13.032 5.4957 13.2609 5.40088 13.4996 5.40088C13.7383 5.40088 13.9672 5.4957 14.136 5.66447C14.3047 5.83325 14.3996 6.06216 14.3996 6.30085V11.7007C14.3996 11.9394 14.3047 12.1683 14.136 12.3371C13.9672 12.5058 13.7383 12.6007 13.4996 12.6007Z" fill="black"/>
</svg>
