<svg width="14" height="18" viewBox="0 0 14 18" fill="none" xmlns="http://www.w3.org/2000/svg">
<path d="M6.99922 15.3C3.52522 15.3 0.699219 12.474 0.699219 9V5.4C0.699219 4.905 1.10422 4.5 1.59922 4.5H12.3992C12.8942 4.5 13.2992 4.905 13.2992 5.4V9C13.2992 12.474 10.4732 15.3 6.99922 15.3ZM2.49922 6.3V9C2.49922 11.484 4.51522 13.5 6.99922 13.5C9.48322 13.5 11.4992 11.484 11.4992 9V6.3H2.49922Z" fill="black"/>
<path d="M3.39805 6.3C2.90305 6.3 2.49805 5.895 2.49805 5.4V0.9C2.49805 0.405 2.90305 0 3.39805 0C3.89305 0 4.29805 0.405 4.29805 0.9V5.4C4.29805 5.895 3.89305 6.3 3.39805 6.3Z" fill="black"/>
<path d="M10.5992 6.3C10.1042 6.3 9.69922 5.895 9.69922 5.4V0.9C9.69922 0.405 10.1042 0 10.5992 0C11.0942 0 11.4992 0.405 11.4992 0.9V5.4C11.4992 5.895 11.0942 6.3 10.5992 6.3Z" fill="black"/>
<path d="M6.99961 18C6.50461 18 6.09961 17.595 6.09961 17.1V14.4C6.09961 13.905 6.50461 13.5 6.99961 13.5C7.49461 13.5 7.89961 13.905 7.89961 14.4V17.1C7.89961 17.595 7.49461 18 6.99961 18Z" fill="black"/>
</svg>
