<svg width="18" height="18" viewBox="0 0 18 18" fill="none" xmlns="http://www.w3.org/2000/svg">
<path d="M0.65625 9.9375C0.65625 10.383 0.879375 10.7753 1.21875 11.0126V13.125C1.21875 14.7791 2.56463 16.125 4.21875 16.125H5.71875C5.71875 17.1589 6.55988 18 7.59375 18H12.8438C13.8776 18 14.7188 17.1589 14.7188 16.125V12.6431C16.3193 11.3355 17.3438 9.34838 17.3438 7.125C17.3438 3.19613 14.1476 0 10.2188 0C6.28988 0 3.09375 3.19613 3.09375 7.125C3.09375 9.348 4.11825 11.3355 5.71875 12.6431V14.625H4.21875C3.3915 14.625 2.71875 13.9523 2.71875 13.125V11.0126C3.05813 10.7753 3.28125 10.383 3.28125 9.9375C3.28125 9.21262 2.69362 8.625 1.96875 8.625C1.24388 8.625 0.65625 9.21262 0.65625 9.9375ZM4.59375 7.125C4.59375 4.02338 7.11713 1.5 10.2188 1.5C13.3204 1.5 15.8438 4.02338 15.8438 7.125C15.8438 10.2266 13.3204 12.75 10.2188 12.75C7.11713 12.75 4.59375 10.2266 4.59375 7.125ZM10.2188 14.25C11.2913 14.25 12.3056 14.0047 13.2188 13.5787V16.125C13.2188 16.332 13.0504 16.5 12.8438 16.5H7.59375C7.38713 16.5 7.21875 16.332 7.21875 16.125V13.5787C8.13188 14.0051 9.14625 14.25 10.2188 14.25Z" fill="black"/>
<path d="M10.2197 9.45645C11.5052 9.45645 12.5507 8.41058 12.5507 7.12508C12.5507 5.83958 11.5048 4.7937 10.2197 4.7937C8.93455 4.7937 7.88867 5.83958 7.88867 7.12508C7.88867 8.41058 8.93455 9.45645 10.2197 9.45645ZM10.2197 6.2937C10.6779 6.2937 11.0507 6.66645 11.0507 7.12508C11.0507 7.5837 10.6779 7.95645 10.2197 7.95645C9.76142 7.95645 9.38867 7.5837 9.38867 7.12508C9.38867 6.66645 9.76142 6.2937 10.2197 6.2937Z" fill="black"/>
</svg>
