<svg width="20" height="16" viewBox="0 0 20 16" fill="none" xmlns="http://www.w3.org/2000/svg">
<path d="M0.292997 8.70702L7.29298 15.7071C7.4805 15.8946 7.73483 15.9999 8.00002 15.9999C8.26521 15.9999 8.51954 15.8946 8.70706 15.7071C8.89458 15.5195 8.99993 15.2652 8.99993 15C8.99993 14.7348 8.89458 14.4805 8.70706 14.293L3.41408 8.99999H19C19.2652 8.99999 19.5196 8.89463 19.7071 8.7071C19.8946 8.51957 20 8.26522 20 8C20 7.73479 19.8946 7.48044 19.7071 7.29291C19.5196 7.10537 19.2652 7.00002 19 7.00002H3.41408L8.70706 1.70703C8.89458 1.51952 8.99993 1.26519 8.99993 0.999995C8.99993 0.734804 8.89458 0.480475 8.70706 0.292957C8.51954 0.105438 8.26521 9.15547e-05 8.00002 9.15527e-05C7.73483 9.15508e-05 7.4805 0.105438 7.29298 0.292957L0.292997 7.29299C0.200115 7.38581 0.126432 7.49603 0.0761604 7.61734C0.0258904 7.73866 1.52588e-05 7.86869 1.52588e-05 8C1.52588e-05 8.13132 0.0258904 8.26135 0.0761604 8.38266C0.126432 8.50398 0.200115 8.61419 0.292997 8.70702Z" fill="black"/>
</svg>
