<svg width="19" height="23" viewBox="0 0 19 23" fill="none" xmlns="http://www.w3.org/2000/svg">
<path d="M12.0267 18.8992L7.77546 16.239L3.52422 18.8992C3.36978 18.9971 3.17056 18.9896 3.02184 18.8816C2.87354 18.7741 2.80552 18.5872 2.85027 18.4095L4.06652 13.544L0.268085 10.3235C0.127664 10.2059 0.07282 10.0146 0.129432 9.84039C0.186043 9.66576 0.343118 9.54334 0.525654 9.53061L5.48334 9.18441L7.35863 4.53303C7.49641 4.19342 8.0545 4.19342 8.19229 4.53303L10.0676 9.18441L15.0253 9.53061C15.2078 9.54334 15.3649 9.66576 15.4215 9.84039C15.4781 10.0146 15.4233 10.2059 15.2828 10.3235L11.4844 13.5441L12.7006 18.4096C12.7454 18.5873 12.6774 18.7742 12.529 18.8817C12.3773 18.9919 12.1786 18.9944 12.0267 18.8992Z" fill="#FFB800"/>
</svg>
