<svg width="33" height="33" viewBox="0 0 33 33" fill="none" xmlns="http://www.w3.org/2000/svg">
<rect x="0.5" y="0.895996" width="32" height="32" rx="6" fill="#25A2E0"/>
<path d="M8.73637 15.923C13.5664 13.947 16.7874 12.645 18.3984 12.016C23.0004 10.219 23.9564 9.906 24.5804 9.896C24.7174 9.896 25.0234 9.926 25.2224 10.078C25.5164 10.303 25.5184 10.79 25.4854 11.111C25.2354 13.571 24.1574 19.541 23.6084 22.294C23.3764 23.46 22.9184 23.851 22.4754 23.889C21.5134 23.972 20.7834 23.292 19.8514 22.718C18.3934 21.82 17.5694 21.259 16.1534 20.386C14.5174 19.376 15.5784 18.822 16.5104 17.911C16.7544 17.672 20.9944 14.051 21.0764 13.723C21.0864 13.683 21.0964 13.529 20.9994 13.448C20.9034 13.368 20.7594 13.395 20.6564 13.418C20.5104 13.448 18.1804 14.894 13.6664 17.755C13.0054 18.183 12.4064 18.391 11.8694 18.378C11.2774 18.365 10.1394 18.063 9.29437 17.805C8.25837 17.488 7.43238 17.319 7.50438 16.783C7.54038 16.503 7.95038 16.216 8.73438 15.923H8.73637Z" fill="white"/>
</svg>
