<svg width="33" height="33" viewBox="0 0 33 33" fill="none" xmlns="http://www.w3.org/2000/svg">
<rect x="0.5" y="0.895996" width="32" height="32" rx="6" fill="#EA3223"/>
<path d="M24.542 11.386C24.822 11.674 25.022 12.033 25.125 12.426C25.5 13.874 25.5 16.896 25.5 16.896C25.5 16.896 25.5 19.918 25.125 21.366C25.0234 21.7571 24.8226 22.1153 24.542 22.406C24.262 22.694 23.915 22.902 23.534 23.008C22.13 23.396 16.5 23.396 16.5 23.396C16.5 23.396 10.87 23.396 9.468 23.008C9.08405 22.9008 8.73572 22.6929 8.459 22.406C8.17824 22.1154 7.9774 21.7571 7.876 21.366C7.5 19.918 7.5 16.896 7.5 16.896C7.5 16.896 7.5 13.874 7.876 12.426C7.979 12.033 8.18 11.674 8.459 11.386C8.739 11.097 9.086 10.89 9.468 10.784C10.869 10.396 16.5 10.396 16.5 10.396C16.5 10.396 22.13 10.396 23.534 10.784C23.915 10.89 24.263 11.098 24.542 11.386ZM19.377 16.896L14.7 14.111V19.681L19.378 16.896H19.377Z" fill="white"/>
</svg>
