<svg width="24" height="24" viewBox="0 0 24 24" fill="none" xmlns="http://www.w3.org/2000/svg">
<path fill-rule="evenodd" clip-rule="evenodd" d="M12 10.5C10.7574 10.5 9.75 11.5074 9.75 12.75C9.75 13.9926 10.7574 15 12 15C13.2426 15 14.25 13.9926 14.25 12.75C14.25 11.5074 13.2426 10.5 12 10.5ZM8.25 12.75C8.25 10.6789 9.92893 9 12 9C14.0711 9 15.75 10.6789 15.75 12.75C15.75 14.8211 14.0711 16.5 12 16.5C9.92893 16.5 8.25 14.8211 8.25 12.75Z" fill="black"/>
<path fill-rule="evenodd" clip-rule="evenodd" d="M12 16.5C11.2432 16.5 10.4968 16.6762 9.81988 17.0147C9.14296 17.3531 8.55414 17.8445 8.10004 18.45C7.85152 18.7814 7.38142 18.8485 7.05004 18.6C6.71867 18.3515 6.65152 17.8814 6.90004 17.55C7.49386 16.7583 8.26385 16.1156 9.14906 15.673C10.0343 15.2304 11.0104 15 12 15C12.9897 15 13.9658 15.2304 14.851 15.673C15.7362 16.1156 16.5062 16.7582 17.1 17.55C17.3486 17.8814 17.2814 18.3515 16.95 18.6C16.6187 18.8485 16.1486 18.7814 15.9 18.45C15.446 17.8445 14.8571 17.3531 14.1802 17.0147C13.5033 16.6762 12.7569 16.5 12 16.5Z" fill="black"/>
<path fill-rule="evenodd" clip-rule="evenodd" d="M18.75 2.25C19.5784 2.25 20.25 2.92157 20.25 3.75V20.25C20.25 21.0784 19.5784 21.75 18.75 21.75H5.25C4.42157 21.75 3.75 21.0784 3.75 20.25V3.75C3.75 2.92157 4.42157 2.25 5.25 2.25L18.75 2.25ZM18.75 20.25V3.75L5.25 3.75L5.25 20.25H18.75Z" fill="black"/>
<path fill-rule="evenodd" clip-rule="evenodd" d="M8.25 6C8.25 5.58579 8.58579 5.25 9 5.25H15C15.4142 5.25 15.75 5.58579 15.75 6C15.75 6.41421 15.4142 6.75 15 6.75H9C8.58579 6.75 8.25 6.41421 8.25 6Z" fill="black"/>
</svg>
