<svg width="126" height="116" viewBox="0 0 126 116" fill="none" xmlns="http://www.w3.org/2000/svg">
<path d="M52.639 112.682L42.9171 100.524L28.2656 102.786L43.8149 64.9396L68.1883 74.8353L52.639 112.682Z" fill="#F95C3C" stroke="#E73E1C" stroke-miterlimit="10"/>
<path d="M62.1654 72.3881L49.3747 67.1952L35.1934 101.718L42.9174 100.524L47.9971 106.876L62.1654 72.3881Z" fill="white" stroke="#E73E1C" stroke-miterlimit="10"/>
<path d="M76.6534 112.682L86.3786 100.524L101.027 102.786L85.4808 64.9396L61.1074 74.8353L76.6534 112.682Z" fill="#F95C3C" stroke="#E73E1C" stroke-miterlimit="10"/>
<path d="M67.1309 72.3881L79.9215 67.1952L94.1029 101.718L86.3789 100.524L81.2992 106.876L67.1309 72.3881Z" fill="white" stroke="#E73E1C" stroke-miterlimit="10"/>
<path d="M85.4812 64.9396L83.0392 65.9327C78.5374 69.782 72.8015 72.2421 66.5041 72.6478L64.6498 73.4008L62.7955 72.6478C56.4949 72.2421 50.759 69.782 46.2604 65.9327L43.8185 64.9396L39.0098 76.6431C39.3689 77.1592 39.79 77.6135 40.296 77.977C43.5802 80.3528 49.3357 78.1685 53.2793 79.444C56.7985 80.58 59.9227 85.0783 63.7064 85.7534L64.6498 83.4523L65.5933 85.7534C69.377 85.0783 72.5012 80.58 76.0204 79.444C79.9673 78.1718 85.7195 80.3528 89.0037 77.977C89.5097 77.6103 89.9308 77.1592 90.2899 76.6431L85.4812 64.9396Z" fill="#2C363B" stroke="#E73E1C" stroke-miterlimit="10"/>
<path d="M104.059 29.6732C102.78 25.7493 96.7988 24.1752 94.4092 20.9101C91.9966 17.6126 92.3166 11.4818 88.9997 9.08004C85.7156 6.70428 79.9601 8.88855 76.0165 7.61304C72.21 6.38297 68.8638 1.21277 64.6459 1.21277C60.4281 1.21277 57.0819 6.38297 53.2754 7.61304C49.3285 8.8853 43.5763 6.70428 40.2921 9.08004C36.9753 11.4785 37.2985 17.6126 34.8827 20.9101C32.493 24.1752 26.5123 25.7525 25.2326 29.6732C23.9953 33.4575 27.8606 38.209 27.8606 42.4056C27.8606 46.6021 23.9953 51.3536 25.2326 55.138C26.5123 59.0619 32.493 60.636 34.8827 63.901C37.2952 67.1985 36.9753 73.3294 40.2921 75.7311C43.5763 78.1069 49.3317 75.9226 53.2754 77.1981C57.0819 78.4282 60.4281 83.5984 64.6459 83.5984C68.8638 83.5984 72.21 78.4282 76.0165 77.1981C79.9634 75.9258 85.7156 78.1069 88.9997 75.7311C92.3166 73.3326 91.9934 67.1985 94.4092 63.901C96.7988 60.636 102.78 59.0586 104.059 55.138C105.297 51.3536 101.431 46.6021 101.431 42.4056C101.431 38.209 105.297 33.4575 104.059 29.6732ZM64.6459 70.4603C49.0608 70.4603 36.4268 57.8999 36.4268 42.4056C36.4268 26.9112 49.0608 14.3508 64.6459 14.3508C80.2311 14.3508 92.865 26.9112 92.865 42.4056C92.865 57.8999 80.2311 70.4603 64.6459 70.4603Z" fill="#F95C3C" stroke="#E73E1C" stroke-miterlimit="10"/>
<path d="M46.3657 69.3698C37.6623 63.518 31.9297 53.6158 31.9297 42.4055C31.9297 34.4734 34.8025 27.1935 39.5656 21.543M40.8159 20.1409C46.7868 13.8283 55.2617 9.87842 64.6474 9.87842C82.6875 9.87842 97.3651 24.4705 97.3651 42.4055C97.3651 60.3406 82.6875 74.9327 64.6474 74.9327C58.4643 74.9327 52.6794 73.219 47.7401 70.2461M66.2797 72.9042C82.4622 72.0571 95.3671 58.7016 95.3671 42.4055C95.3671 32.5617 90.6563 23.7889 83.36 18.2001M82.1064 17.2881C77.1442 13.8672 71.1276 11.8647 64.6474 11.8647C47.7074 11.8647 33.9276 25.5643 33.9276 42.4055C33.9276 59.2468 47.4985 72.7354 64.2556 72.9431" stroke="#E73E1C" stroke-miterlimit="10"/>
</svg>
