<svg width="98" height="99" viewBox="0 0 98 99" fill="none" xmlns="http://www.w3.org/2000/svg">
<path d="M15.279 70.2261L15.2792 70.2263C30.3139 85.2579 54.6918 85.258 69.7234 70.2261L69.7236 70.226C84.7581 55.1878 84.7585 30.8096 69.7267 15.7776C54.6885 0.739068 30.3105 0.742542 15.2757 15.7776C0.240783 30.8128 0.240959 55.1878 15.279 70.2261Z" fill="white" fill-opacity="0.5" stroke="#F95C3C" stroke-width="3"/>
<path d="M97.396 91.251C97.2411 90.5008 96.9413 89.8993 96.5371 89.3992C95.6647 88.4666 94.7351 87.588 93.819 86.6993C92.8961 85.8139 91.9664 84.9388 91.0166 84.0872C90.0769 83.2221 89.1102 82.3807 88.1469 81.5427C86.2 79.8768 84.2061 78.2616 82.1413 76.7173C81.1982 76.0178 80.2417 75.3285 79.2682 74.6594C79.7196 73.4193 79.4535 71.9764 78.4632 70.9796L77.0452 69.5569C76.7892 69.3001 76.5063 69.094 76.2031 68.9352C88.8677 52.347 87.6416 28.5072 72.5149 13.3282C56.041 -3.19917 29.3309 -3.19916 12.8637 13.3214C-3.60693 29.8454 -3.60019 56.6351 12.8671 73.1591C27.9971 88.3382 51.76 89.5715 68.2946 76.8592C68.4529 77.1634 68.6617 77.4472 68.9143 77.704L70.3323 79.1266C71.326 80.1235 72.7642 80.3871 74.0003 79.9342C74.6672 80.9108 75.3544 81.8705 76.0516 82.8167C77.5909 84.8881 79.2042 86.8885 80.8614 88.8416C81.7001 89.8115 82.5354 90.7813 83.3977 91.7207C84.2498 92.6736 85.1222 93.6096 86.0013 94.5321C86.8905 95.4512 87.7629 96.3839 88.6925 97.2591C89.1877 97.6646 89.7906 97.9687 90.5383 98.1207C91.2962 98.266 92.1584 98.3032 93.3474 98.0126C95.2235 97.5497 96.7931 96.0798 97.2815 94.0658C97.5712 92.8696 97.5341 92.0045 97.3893 91.2476L97.396 91.251ZM14.8914 71.1249C-0.461007 55.7228 -0.461007 30.751 14.888 15.3523C30.2404 -0.0498143 55.1315 -0.0498143 70.4839 15.3523C85.8329 30.751 85.8329 55.7194 70.4805 71.1249C55.1315 86.5236 30.2437 86.5236 14.8947 71.1249H14.8914Z" fill="#F95C3C"/>
<path opacity="0.3" d="M74 79.9376L79.2645 74.6561C79.2645 74.6561 77.8667 78.6772 74 79.9376Z" fill="black"/>
</svg>
