<svg width="104" height="102" viewBox="0 0 104 102" fill="none" xmlns="http://www.w3.org/2000/svg">
<g clip-path="url(#clip0_10056_11356)">
<path fill-rule="evenodd" clip-rule="evenodd" d="M96.439 49.6062C95.0166 49.6062 93.8635 48.4602 93.8635 47.0466C93.8635 25.3406 76.0952 7.68044 54.2546 7.68044C32.414 7.68044 14.6443 25.3406 14.6443 47.0466C14.6443 48.4602 13.4911 49.6062 12.0672 49.6062C10.6433 49.6062 9.49023 48.4602 9.49023 47.0466C9.49172 22.5163 29.5721 2.56116 54.2531 2.56116C78.9341 2.56116 99.016 22.5163 99.016 47.0466C99.016 48.4602 97.8614 49.6062 96.439 49.6062Z" fill="#E73E1C"/>
<path fill-rule="evenodd" clip-rule="evenodd" d="M32.6685 21.4058C31.6419 21.4058 30.6168 20.9977 29.8624 20.1903C28.4251 18.651 28.5129 16.2436 30.0633 14.8137C36.5861 8.79245 45.0849 5.47571 53.9914 5.47571C62.078 5.47571 69.9742 8.27194 76.2262 13.3483C77.8629 14.6762 78.1054 17.0732 76.7678 18.6998C75.4317 20.3264 73.0199 20.5674 71.3832 19.238C66.494 15.2692 60.3178 13.0837 53.9914 13.0837C47.0221 13.0837 40.3743 15.6773 35.2723 20.3885C34.5358 21.0687 33.6 21.4058 32.6685 21.4058Z" fill="#E73E1C"/>
<path fill-rule="evenodd" clip-rule="evenodd" d="M25.5517 21.4427C24.1694 21.4427 22.7902 20.8926 21.7755 19.8073C19.8397 17.7356 19.9587 14.4958 22.0448 12.5705C30.8233 4.46422 42.2621 0 54.2529 0C65.1382 0 75.7677 3.76331 84.1831 10.5949C86.3867 12.3842 86.7125 15.6092 84.9137 17.7992C83.1118 19.9906 79.8668 20.3145 77.6632 18.5252C71.0823 13.1827 62.768 10.24 54.2529 10.24C44.8733 10.24 35.9237 13.7327 29.0556 20.0734C28.0632 20.9888 26.8045 21.4412 25.5502 21.4412L25.5517 21.4427Z" fill="#E73E1C"/>
<path fill-rule="evenodd" clip-rule="evenodd" d="M14.2891 84.7895C9.3627 84.7895 5.33203 80.7837 5.33203 75.8862V53.6805C5.33203 48.7845 9.3627 44.7787 14.2891 44.7787C19.2154 44.7787 23.2461 48.7845 23.2461 53.6805V75.8862C23.2461 80.7837 19.2154 84.7895 14.2891 84.7895Z" fill="#F95C3C"/>
<path fill-rule="evenodd" clip-rule="evenodd" d="M19.9248 88.5911C16.769 88.5911 14.1875 86.0256 14.1875 82.8878V46.2794C14.1875 43.1431 16.769 40.576 19.9248 40.576C23.0806 40.576 25.662 43.1416 25.662 46.2794V82.8878C25.662 86.0241 23.0806 88.5911 19.9248 88.5911Z" fill="#F95C3C"/>
<path fill-rule="evenodd" clip-rule="evenodd" d="M25.5604 88.5912C24.5084 88.5912 23.6484 87.735 23.6484 86.6896V42.4777C23.6484 41.4323 24.5099 40.5761 25.5604 40.5761C26.6123 40.5761 27.4723 41.4323 27.4723 42.4777V86.6896C27.4723 87.735 26.6108 88.5912 25.5604 88.5912Z" fill="#E73E1C"/>
<path fill-rule="evenodd" clip-rule="evenodd" d="M94.543 84.7895C99.4708 84.7895 103.5 80.7837 103.5 75.8862V53.6805C103.5 48.7845 99.4708 44.7787 94.543 44.7787C89.6181 44.7787 85.5859 48.7845 85.5859 53.6805V75.8862C85.5859 80.7837 89.6181 84.7895 94.543 84.7895Z" fill="#F95C3C"/>
<path fill-rule="evenodd" clip-rule="evenodd" d="M88.9091 88.5911C92.0634 88.5911 94.6449 86.0256 94.6449 82.8878V46.2794C94.6449 43.1431 92.0634 40.576 88.9091 40.576C85.7548 40.576 83.1719 43.1416 83.1719 46.2794V82.8878C83.1719 86.0241 85.7533 88.5911 88.9091 88.5911Z" fill="#F95C3C"/>
<path fill-rule="evenodd" clip-rule="evenodd" d="M83.2728 88.5911C84.3232 88.5911 85.1832 87.735 85.1832 86.6895V42.4777C85.1832 41.4322 84.3232 40.576 83.2728 40.576C82.2194 40.576 81.3594 41.4322 81.3594 42.4777V86.6895C81.3594 87.735 82.2194 88.5911 83.2728 88.5911Z" fill="#E73E1C"/>
<path fill-rule="evenodd" clip-rule="evenodd" d="M4.36546 66.3973C3.8209 66.3973 3.37305 65.9551 3.37305 65.4125V58.2422C3.37305 57.6995 3.81941 57.2574 4.36546 57.2574C4.91003 57.2574 5.35639 57.6995 5.35639 58.2422V65.4125C5.35639 65.9551 4.91003 66.3973 4.36546 66.3973Z" fill="#F95C3C"/>
<path fill-rule="evenodd" clip-rule="evenodd" d="M1.52174 63.5522C1.52918 63.0702 1.92942 62.6842 2.41447 62.6916C2.89952 62.699 3.28637 63.0968 3.28041 63.5803C3.1837 68.9066 3.7 73.8958 4.78913 78.2461C5.8485 82.4767 7.44797 86.0907 9.54885 88.7982C12.5499 92.668 17.0537 94.8372 22.5767 96.0927C28.2203 97.3732 34.9217 97.703 42.1736 97.8967C42.6587 97.907 43.044 98.3092 43.0321 98.7913C43.0202 99.2734 42.617 99.6549 42.1319 99.643C34.7729 99.4478 27.9643 99.1107 22.1839 97.7976C16.2815 96.4579 11.4399 94.1023 8.1562 89.8673C5.90206 86.9602 4.19695 83.1274 3.07955 78.6631C1.9562 74.1767 1.42503 69.0353 1.52323 63.5522H1.52174Z" fill="#F95C3C"/>
<path fill-rule="evenodd" clip-rule="evenodd" d="M2.40002 63.5656H2.31819H2.24082C1.27965 63.5656 0.5 62.7908 0.5 61.8355C0.5 60.9735 1.13681 60.2578 1.96854 60.1262C2.09947 60.1025 2.24528 60.0877 2.40002 60.0877C2.94459 60.0877 3.39095 60.2563 3.39095 60.4633V60.5372C3.75251 60.8537 3.98164 61.318 3.98164 61.8355C3.98164 62.3531 3.75251 62.8174 3.39095 63.1338V63.1915C3.39095 63.3985 2.94459 63.5671 2.40002 63.5671V63.5656Z" fill="#F95C3C"/>
<path d="M40.4429 96.2153H52.1198C53.3577 96.2153 54.3621 97.2135 54.3621 98.4437V99.5587C54.3621 100.789 53.3577 101.787 52.1198 101.787H40.4415C39.2035 101.787 38.1992 100.789 38.1992 99.5587V98.4437C38.1992 97.2135 39.2035 96.2153 40.4415 96.2153H40.4429Z" fill="#F95C3C"/>
</g>
<defs>
<clipPath id="clip0_10056_11356">
<rect width="103" height="105" fill="white" transform="translate(0.5)"/>
</clipPath>
</defs>
</svg>
