<svg xmlns="http://www.w3.org/2000/svg">
	<symbol id="catalog" width="22" height="22" viewBox="0 0 22 22" fill="none" xmlns="http://www.w3.org/2000/svg">
		<path fill-rule="evenodd" clip-rule="evenodd" d="M8.25 4.125H4.58333C4.3302 4.125 4.125 4.3302 4.125 4.58333V10.0833C4.125 10.3365 4.3302 10.5417 4.58333 10.5417H8.25C8.50313 10.5417 8.70833 10.3365 8.70833 10.0833V4.58333C8.70833 4.3302 8.50313 4.125 8.25 4.125ZM4.58333 2.75C3.57081 2.75 2.75 3.57081 2.75 4.58333V10.0833C2.75 11.0959 3.57081 11.9167 4.58333 11.9167H8.25C9.26252 11.9167 10.0833 11.0959 10.0833 10.0833V4.58333C10.0833 3.57081 9.26252 2.75 8.25 2.75H4.58333Z" fill="#000000"/>
		<path fill-rule="evenodd" clip-rule="evenodd" d="M17.417 12.375H13.7503C13.4972 12.375 13.292 12.5802 13.292 12.8333V18.3333C13.292 18.5865 13.4972 18.7917 13.7503 18.7917H17.417C17.6701 18.7917 17.8753 18.5865 17.8753 18.3333V12.8333C17.8753 12.5802 17.6701 12.375 17.417 12.375ZM13.7503 11C12.7378 11 11.917 11.8208 11.917 12.8333V18.3333C11.917 19.3459 12.7378 20.1667 13.7503 20.1667H17.417C18.4295 20.1667 19.2503 19.3459 19.2503 18.3333V12.8333C19.2503 11.8208 18.4295 11 17.417 11H13.7503Z" fill="#000000"/>
		<path fill-rule="evenodd" clip-rule="evenodd" d="M17.417 4.125H13.7503C13.4972 4.125 13.292 4.3302 13.292 4.58333V7.33333C13.292 7.58646 13.4972 7.79167 13.7503 7.79167H17.417C17.6701 7.79167 17.8753 7.58646 17.8753 7.33333V4.58333C17.8753 4.3302 17.6701 4.125 17.417 4.125ZM13.7503 2.75C12.7378 2.75 11.917 3.57081 11.917 4.58333V7.33333C11.917 8.34586 12.7378 9.16667 13.7503 9.16667H17.417C18.4295 9.16667 19.2503 8.34586 19.2503 7.33333V4.58333C19.2503 3.57081 18.4295 2.75 17.417 2.75H13.7503Z" fill="#000000"/>
		<path fill-rule="evenodd" clip-rule="evenodd" d="M8.25 15.125H4.58333C4.3302 15.125 4.125 15.3302 4.125 15.5833V18.3333C4.125 18.5865 4.3302 18.7917 4.58333 18.7917H8.25C8.50313 18.7917 8.70833 18.5865 8.70833 18.3333V15.5833C8.70833 15.3302 8.50313 15.125 8.25 15.125ZM4.58333 13.75C3.57081 13.75 2.75 14.5708 2.75 15.5833V18.3333C2.75 19.3459 3.57081 20.1667 4.58333 20.1667H8.25C9.26252 20.1667 10.0833 19.3459 10.0833 18.3333V15.5833C10.0833 14.5708 9.26252 13.75 8.25 13.75H4.58333Z" fill="#000000"/>
	</symbol>

	<symbol id="home" width="20" height="20" viewBox="0 0 20 20" fill="none" xmlns="http://www.w3.org/2000/svg">
		<path d="M0.833008 10.187C0.833008 8.08879 0.833008 7.04012 1.30967 6.17112C1.78451 5.30121 2.65442 4.76221 4.39334 3.68237L6.22667 2.54479C8.06459 1.40354 8.98401 0.833374 9.99967 0.833374C11.0153 0.833374 11.9338 1.40354 13.7727 2.54479L15.606 3.68237C17.3449 4.76221 18.2148 5.30121 18.6906 6.17112C19.1663 7.04012 19.1663 8.08879 19.1663 10.1861V11.5813C19.1663 15.1563 19.1663 16.9447 18.092 18.0557C17.0186 19.1667 15.2898 19.1667 11.833 19.1667H8.16634C4.70959 19.1667 2.98076 19.1667 1.90734 18.0557C0.833008 16.9447 0.833008 15.1572 0.833008 11.5813V10.187Z" stroke="#333333" stroke-width="1.375" />
		<path d="M7.25 13.6667C8.02917 14.2442 8.97792 14.5834 10 14.5834C11.0221 14.5834 11.9708 14.2442 12.75 13.6667" stroke="#333333" stroke-width="1.375" stroke-linecap="round" />
	</symbol>

	

	<symbol id="search" width="23" height="22" viewBox="0 0 23 22" fill="none" xmlns="http://www.w3.org/2000/svg">
		<path d="M10.0885 18.425C14.417 18.425 17.926 14.9161 17.926 10.5875C17.926 6.259 14.417 2.75003 10.0885 2.75003C5.75994 2.75003 2.25098 6.259 2.25098 10.5875C2.25098 14.9161 5.75994 18.425 10.0885 18.425Z" stroke="#333333" stroke-width="1.375" />
		<path d="M15.8633 16.3625L18.7508 19.25" stroke="#333333" stroke-width="1.375" stroke-linecap="round" />
	</symbol>

	<symbol id="user" width="18" height="20" viewBox="0 0 18 20" fill="none" xmlns="http://www.w3.org/2000/svg">
		<path d="M9.00065 8.16671C11.0257 8.16671 12.6673 6.52508 12.6673 4.50004C12.6673 2.475 11.0257 0.833374 9.00065 0.833374C6.97561 0.833374 5.33398 2.475 5.33398 4.50004C5.33398 6.52508 6.97561 8.16671 9.00065 8.16671Z" stroke="#333333" stroke-width="1.375" />
		<path d="M16.3337 15.0417C16.3337 17.3196 16.3337 19.1667 9.00033 19.1667C1.66699 19.1667 1.66699 17.3196 1.66699 15.0417C1.66699 12.7638 4.95049 10.9167 9.00033 10.9167C13.0502 10.9167 16.3337 12.7638 16.3337 15.0417Z" stroke="#333333" stroke-width="1.375" />
	</symbol>

	<symbol id="favorite" width="20" height="18" viewBox="0 0 20 18" fill="none" xmlns="http://www.w3.org/2000/svg">
		<path d="M13.7692 0.75C16.9978 0.75 19.1673 3.81569 19.1673 6.67563C19.1673 12.4675 10.1636 17.2101 10.0007 17.2101C9.83769 17.2101 0.833984 12.4675 0.833984 6.67563C0.833984 3.81569 3.00343 0.75 6.23214 0.75C8.08585 0.75 9.29788 1.68617 10.0007 2.50917C10.7034 1.68617 11.9155 0.75 13.7692 0.75Z" stroke="#333333" stroke-width="1.375" stroke-linecap="round" stroke-linejoin="round" />
	</symbol>

	<symbol id="cart" width="19" height="18" viewBox="0 0 19 18" fill="none" xmlns="http://www.w3.org/2000/svg">
  	<path d="M5.875 14.5C6.23967 14.5 6.58941 14.6449 6.84727 14.9027C7.10513 15.1606 7.25 15.5103 7.25 15.875C7.25 16.2397 7.10513 16.5894 6.84727 16.8473C6.58941 17.1051 6.23967 17.25 5.875 17.25C5.51033 17.25 5.16059 17.1051 4.90273 16.8473C4.64487 16.5894 4.5 16.2397 4.5 15.875C4.5 15.5103 4.64487 15.1606 4.90273 14.9027C5.16059 14.6449 5.51033 14.5 5.875 14.5ZM14.125 14.5C14.4897 14.5 14.8394 14.6449 15.0973 14.9027C15.3551 15.1606 15.5 15.5103 15.5 15.875C15.5 16.2397 15.3551 16.5894 15.0973 16.8473C14.8394 17.1051 14.4897 17.25 14.125 17.25C13.7603 17.25 13.4106 17.1051 13.1527 16.8473C12.8949 16.5894 12.75 16.2397 12.75 15.875C12.75 15.5103 12.8949 15.1606 13.1527 14.9027C13.4106 14.6449 13.7603 14.5 14.125 14.5Z" stroke="#333333" stroke-width="1.375" />
  	<path d="M1.06075 0.100979C0.888624 0.0404438 0.6995 0.050764 0.534984 0.12967C0.370468 0.208576 0.244035 0.349604 0.183499 0.521729C0.122963 0.693855 0.133284 0.882978 0.21219 1.04749C0.291095 1.21201 0.432124 1.33844 0.604249 1.39898L1.06075 0.100979ZM17.9357 7.0594L18.6085 7.19781L18.6094 7.19415L17.9357 7.0594ZM4.2315 6.94665V4.45148H2.8565V6.94665H4.2315ZM1.3 0.185313L1.06075 0.100979L0.604249 1.39898L0.843499 1.4824L1.3 0.185313ZM9.02567 12.8958H13.8858V11.5208H9.02567V12.8958ZM4.2315 4.45148C4.2315 3.8034 4.23242 3.26256 4.18567 2.82348C4.13525 2.3679 4.02983 1.95265 3.77133 1.57498L2.63558 2.35048C2.71808 2.47148 2.78225 2.63831 2.818 2.97106C2.85558 3.3194 2.8565 3.77315 2.8565 4.45148H4.2315ZM0.843499 1.4824C1.45583 1.69781 1.85825 1.84081 2.15433 1.98748C2.43208 2.12315 2.55492 2.23315 2.63558 2.3514L3.77133 1.57498C3.511 1.19365 3.16358 0.949813 2.75933 0.750896C2.37433 0.562063 1.88117 0.389729 1.3 0.185313L0.843499 1.4824ZM2.8565 6.94665C2.8565 8.27856 2.86933 9.23831 2.994 9.97165C3.12875 10.7545 3.39733 11.3155 3.89692 11.8435L4.89517 10.8975C4.60183 10.5876 4.44325 10.2851 4.34975 9.73973C4.24892 9.1439 4.2315 8.31156 4.2315 6.94665H2.8565ZM9.02567 11.5208C7.72675 11.5208 6.82567 11.519 6.14642 11.4227C5.491 11.3301 5.14542 11.1615 4.89517 10.8975L3.89692 11.8435C4.44142 12.4182 5.13167 12.6685 5.953 12.784C6.7505 12.8976 7.76892 12.8958 9.02567 12.8958V11.5208ZM3.544 4.29748H14.6632V2.92248H3.54492L3.544 4.29748ZM17.2619 6.92006L16.8036 9.14298L18.1511 9.41981L18.6085 7.19781L17.2619 6.92006ZM14.665 4.29748C15.4497 4.29748 16.1408 4.2984 16.6862 4.3589C16.9567 4.39006 17.1602 4.43223 17.3022 4.48173C17.4498 4.53398 17.4737 4.5734 17.4618 4.55781L18.5517 3.71998C18.3362 3.43948 18.0337 3.2809 17.7578 3.18465C17.4595 3.08655 17.1511 3.02199 16.8384 2.99215C16.2013 2.92156 15.424 2.92248 14.665 2.92248V4.29748ZM18.6094 7.19415C18.7652 6.41681 18.8972 5.76415 18.9293 5.24165C18.9632 4.70448 18.9018 4.17465 18.5517 3.71998L17.4618 4.55781C17.5186 4.63206 17.5809 4.76498 17.5571 5.15731C17.5323 5.56431 17.4251 6.1079 17.2619 6.92465L18.6094 7.19415ZM13.8858 12.8958C14.5843 12.8958 15.171 12.8967 15.644 12.839C16.1344 12.7794 16.5827 12.6474 16.9732 12.3293L16.1042 11.2632C15.9896 11.3567 15.8273 11.4319 15.4762 11.4741C15.1068 11.5199 14.6192 11.5208 13.8858 11.5208V12.8958ZM16.8054 9.14298C16.6569 9.86073 16.5579 10.3374 16.4387 10.6903C16.326 11.0258 16.2187 11.1697 16.1042 11.2632L16.9732 12.3293C17.3646 12.0103 17.5837 11.5987 17.7413 11.1294C17.8935 10.6784 18.0108 10.1046 18.152 9.42073L16.8054 9.14298Z" fill="#333333" />
  <path d="M7.70801 6.25L8.19201 9.10817M13.2337 6.25L12.7497 9.10817" stroke="#333333" stroke-width="1.375" stroke-linecap="round" />
</symbol>
</svg>
